<?xml version="1.0" standalone="no"?>
<!DOCTYPE svg PUBLIC "-//W3C//DTD SVG 20010904//EN"
 "http://www.w3.org/TR/2001/REC-SVG-20010904/DTD/svg10.dtd">
<svg version="1.0" xmlns="http://www.w3.org/2000/svg"
 width="512.000000pt" height="512.000000pt" viewBox="0 0 512.000000 512.000000"
 preserveAspectRatio="xMidYMid meet">

<g transform="translate(0.000000,512.000000) scale(0.100000,-0.100000)"
fill="#000000" stroke="none">
<path d="M921 5105 c-149 -33 -254 -83 -363 -175 -117 -97 -209 -237 -255
-385 l-28 -90 0 -1895 0 -1895 28 -90 c80 -259 284 -462 542 -542 l90 -27 331
-1 330 0 41 27 c62 41 88 90 88 168 0 78 -26 127 -88 168 l-40 27 -306 5
c-288 6 -309 7 -364 29 -110 43 -195 132 -234 245 -17 48 -18 146 -18 1886 0
1740 1 1838 18 1886 39 113 123 201 234 246 l58 23 1315 0 1315 0 57 -23 c104
-42 188 -126 230 -230 23 -57 23 -58 28 -727 l5 -670 24 -38 c33 -54 88 -87
152 -94 46 -4 62 -1 109 24 44 23 60 39 82 82 l28 53 0 647 c0 594 -2 653 -19
738 -35 166 -110 302 -234 420 -119 112 -236 173 -400 207 -67 14 -229 16
-1384 15 -1076 0 -1319 -3 -1372 -14z"/>
<path d="M1207 3910 c-76 -23 -137 -108 -137 -192 0 -60 36 -125 89 -163 l43
-30 1082 -3 1083 -2 54 28 c43 22 59 38 81 81 36 68 36 114 0 182 -22 43 -38
59 -81 81 l-53 28 -1067 -1 c-586 0 -1079 -5 -1094 -9z"/>
<path d="M1207 3110 c-77 -23 -137 -108 -137 -192 0 -60 36 -125 89 -163 l43
-30 697 0 697 0 41 27 c62 41 88 90 88 168 0 78 -26 127 -88 168 l-41 27 -680
2 c-375 1 -694 -2 -709 -7z"/>
<path d="M3360 2764 c-324 -63 -555 -268 -642 -570 -32 -111 -32 -295 0 -407
26 -92 76 -195 127 -261 20 -26 35 -49 33 -50 -2 -2 -38 -22 -81 -45 -268
-147 -489 -391 -612 -678 -117 -272 -119 -458 -5 -601 46 -59 120 -108 201
-133 58 -18 108 -19 1089 -19 972 0 1031 1 1088 18 219 69 332 280 273 512
-100 390 -348 715 -689 901 -42 23 -78 43 -80 45 -2 1 13 24 33 50 51 66 101
169 127 261 32 112 32 296 0 407 -77 266 -280 471 -542 546 -73 21 -262 35
-320 24z m240 -419 c108 -37 206 -148 236 -265 39 -154 -23 -313 -157 -402
-58 -39 -148 -68 -209 -68 -149 0 -308 114 -357 255 -23 66 -23 184 0 250 37
108 146 209 257 240 65 18 163 14 230 -10z m125 -1175 c357 -97 636 -385 719
-742 l6 -28 -980 0 -980 0 6 28 c89 382 393 676 784 758 100 21 343 12 445
-16z"/>
<path d="M1207 2310 c-77 -23 -137 -108 -137 -192 0 -60 36 -125 89 -163 l43
-30 481 0 482 0 38 24 c21 13 50 42 65 64 23 34 27 52 27 107 0 55 -4 73 -27
107 -15 22 -44 51 -65 64 l-38 24 -465 2 c-256 1 -478 -2 -493 -7z"/>
</g>
</svg>
